<svg xmlns="http://www.w3.org/2000/svg" viewBox="0 0 424 128" width="106" height="32" role="img" aria-label="icofon">
  <defs>
    <linearGradient id="icofon-badge" x1="0" y1="0" x2="1" y2="1">
      <stop offset="0" stop-color="#0F172A"/><stop offset="1" stop-color="#1E293B"/>
    </linearGradient>
    <linearGradient id="icofon-mark" x1="0" y1="0" x2="1" y2="1">
      <stop offset="0" stop-color="#38BDF8"/><stop offset=".5" stop-color="#6366F1"/><stop offset="1" stop-color="#A855F7"/>
    </linearGradient>
  </defs>
  <rect width="128" height="128" rx="28" fill="url(#icofon-badge)"/>
  <rect x="1.5" y="1.5" width="125" height="125" rx="26.5" fill="none" stroke="#38BDF8" stroke-opacity=".3" stroke-width="3"/>
  <path fill="url(#icofon-mark)" fill-rule="evenodd" transform="translate(64 64) scale(.388) translate(-256 -224)"
        d="M256 130c8 0 14 5 18 13l74 155c4 8 0 18-10 20h-30l-15-34h-74l-15 34h-30c-10-2-14-12-10-20l74-155c4-13 10-13 18-13Zm-23 118h46l-23-54Z"/>
  <text x="160" y="92" font-family="Space Grotesk, ui-sans-serif, system-ui, sans-serif" font-weight="700" font-size="82"
        textLength="256" lengthAdjust="spacingAndGlyphs"><tspan fill="currentColor">ico</tspan><tspan fill="#38BDF8">fon</tspan></text>
</svg>
